Coordinates
version=1
nRows=10
nColumns=60
inDegrees=yes

Units are S.I. units (second, meters, Newtons, ...)
If the header above contains a line with 'inDegrees', this indicates whether rotational values are in degrees (yes) or radians (no).

endheader
time	pelvis_tilt	pelvis_list	pelvis_rotation	pelvis_tx	pelvis_ty	pelvis_tz	hip_flexion_r	hip_adduction_r	hip_rotation_r	knee_angle_r_beta	knee_angle_r	ankle_angle_r	subtalar_angle_r	mtp_angle_r	hip_flexion_l	hip_adduction_l	hip_rotation_l	knee_angle_l_beta	knee_angle_l	ankle_angle_l	subtalar_angle_l	mtp_angle_l	L5_S1_Flex_Ext	L5_S1_Lat_Bending	L5_S1_axial_rotation	L4_L5_Flex_Ext	L4_L5_Lat_Bending	L4_L5_axial_rotation	L3_L4_Flex_Ext	L3_L4_Lat_Bending	L3_L4_axial_rotation	L2_L3_Flex_Ext	L2_L3_Lat_Bending	L2_L3_axial_rotation	L1_L2_Flex_Ext	L1_L2_Lat_Bending	L1_L2_axial_rotation	L1_T12_Flex_Ext	L1_T12_Lat_Bending	L1_T12_axial_rotation	Abs_r3	Abs_r2	Abs_r1	Abs_t1	Abs_t2	arm_flex_r	arm_add_r	arm_rot_r	elbow_flex_r	pro_sup_r	wrist_flex_r	wrist_dev_r	arm_flex_l	arm_add_l	arm_rot_l	elbow_flex_l	pro_sup_l	wrist_flex_l	wrist_dev_l
      8.99000000	      0.68354808	      5.28745731	     92.73949088	      0.40083352	      0.93507317	      0.32568233	      6.13259228	     -4.52957972	      1.27017142	      0.22367465	    -12.81561322	      5.41705922	      0.00000000	      0.00000000	      6.93201140	     -6.12823400	      1.51144241	      0.20694891	    -11.85729912	      5.51126462	      0.00000000	      0.00000000	     -8.14264595	      0.20013948	     -0.09475091	    -15.12170779	      0.26618551	     -0.10067285	    -13.37755303	      0.48661913	     -0.10067285	     -9.30623005	      0.48661913	     -0.08290705	     -7.56126103	      0.40812442	     -0.07698512	     -4.65270789	      0.31001605	     -0.07106319	    -58.16210573	      2.26401781	     -0.52697616	      0.00000000	      0.00000000	     19.50912725	    -24.03578116	      7.48844557	     93.93942592	     76.51081865	    -25.40182039	     53.70755932	     22.86317172	    -23.92118024	     13.05130542	     91.80330779	     74.20599618	    -26.98775035	     52.12722592
      9.00000000	      0.77864610	      5.13455096	     92.60261912	      0.40109705	      0.93484892	      0.32808104	      6.52933234	     -4.41750853	      1.62065021	      0.22512343	    -12.89862267	      4.93071196	      0.00000000	      0.00000000	      7.39655334	     -6.22272487	      1.53101290	      0.21246551	    -12.17337680	      5.13803350	      0.00000000	      0.00000000	     -8.21753243	      0.20290683	     -0.06508434	    -15.26077947	      0.26986608	     -0.06915211	    -13.50058402	      0.49334767	     -0.06915211	     -9.39181781	      0.49334767	     -0.05694880	     -7.63080061	      0.41376761	     -0.05288102	     -4.69549803	      0.31430268	     -0.04881325	    -58.69701237	      2.29532265	     -0.36197956	      0.00000000	      0.00000000	     20.36418850	    -24.01934044	      8.11006636	     92.71624244	     76.05289324	    -25.45023667	     52.40711412	     23.72552917	    -23.82310366	     13.55383000	     90.45588565	     73.69142405	    -26.76659515	     50.77293143
      9.01000000	      0.85914455	      4.73595844	     92.57968863	      0.40113052	      0.93412569	      0.33051660	      7.11112104	     -4.36008201	      1.68463864	      0.22388174	    -12.82747873	      4.66065260	      0.00000000	      0.00000000	      8.09179549	     -6.28789257	      1.49769390	      0.21509605	    -12.32409613	      4.99326507	      0.00000000	      0.00000000	     -8.26614294	      0.21177053	     -0.04970913	    -15.35105405	      0.28165481	     -0.05281595	    -13.58044623	      0.51489888	     -0.05281595	     -9.44737476	      0.51489888	     -0.04349549	     -7.67594033	      0.43184247	     -0.04038867	     -4.72327407	      0.32803256	     -0.03728185	    -59.04423239	      2.39559065	     -0.27646725	      0.00000000	      0.00000000	     21.19817155	    -24.19910876	      8.79664160	     91.73714934	     75.46537737	    -25.62051132	     51.32044564	     24.62590525	    -23.88988944	     14.28394463	     89.33311345	     72.98524940	    -26.79598360	     49.56850896
      9.02000000	      0.87758542	      4.42186260	     92.55974388	      0.40115858	      0.93341081	      0.33298945	      7.58864498	     -4.37386716	      1.67771056	      0.22207253	    -12.72381883	      4.68118617	      0.00000000	      0.00000000	      8.57651676	     -6.27791815	      1.51092523	      0.21367082	    -12.24243627	      5.01668047	      0.00000000	      0.00000000	     -8.37919679	      0.21452907	     -0.04081042	    -15.56100636	      0.28532366	     -0.04336107	    -13.76618241	      0.52160598	     -0.04336107	     -9.57658401	      0.52160598	     -0.03570912	     -7.78092214	      0.43746767	     -0.03315846	     -4.78787305	      0.33230553	     -0.03060781	    -59.85176476	      2.42679572	     -0.22697530	      0.00000000	      0.00000000	     21.80937081	    -24.13690124	      8.78838890	     91.64051905	     75.49644724	    -25.59392279	     51.10795600	     25.24747527	    -23.84883625	     14.26005907	     89.21303079	     72.99876338	    -26.71416304	     49.35222710
      9.03000000	      0.94240974	      4.36114680	     92.54800935	      0.40127959	      0.93319510	      0.33554197	      7.95166011	     -4.29744896	      1.87771906	      0.22653524	    -12.97951315	      4.33828602	      0.00000000	      0.00000000	      9.02604765	     -6.33017253	      1.78188526	      0.22135500	    -12.68270751	      4.71934675	      0.00000000	      0.00000000	     -8.48878214	      0.22371646	     -0.02634971	    -15.76451731	      0.29754289	     -0.02799657	    -13.94622018	      0.54394420	     -0.02799657	     -9.70182911	      0.54394420	     -0.02305600	     -7.88268310	      0.45620261	     -0.02140914	     -4.85049011	      0.34653680	     -0.01976228	    -60.63452195	      2.53072534	     -0.14654920	      0.00000000	      0.00000000	     22.85121371	    -24.08201511	      9.26120882	     90.64277141	     75.19026231	    -25.61297809	     50.23716557	     26.32351563	    -23.73092184	     14.68375871	     88.02225240	     72.53271001	    -26.46938610	     48.33344774
      9.04000000	      1.03403161	      3.83692358	     92.57907183	      0.40125474	      0.93216913	      0.33798165	      8.67426663	     -4.24463760	      1.72195038	      0.22532218	    -12.91001009	      4.12276308	      0.00000000	      0.00000000	      9.84918372	     -6.39397392	      1.71399009	      0.22305035	    -12.77984368	      4.66884540	      0.00000000	      0.00000000	     -8.50996629	      0.23935760	     -0.01011377	    -15.80385840	      0.31834560	     -0.01074588	    -13.98102362	      0.58197406	     -0.01074588	     -9.72604047	      0.58197406	     -0.00884954	     -7.90235470	      0.48809801	     -0.00821743	     -4.86259474	      0.37076492	     -0.00758532	    -60.78583821	      2.70766101	     -0.05624973	      0.00000000	      0.00000000	     23.89503581	    -24.44230941	     10.28830192	     89.50181133	     74.32548677	    -25.98627530	     48.95314787	     27.50902380	    -23.87907771	     15.81111763	     86.54007679	     71.39313331	    -26.53893458	     46.75863235
      9.05000000	      1.07246969	      3.55155239	     92.58737457	      0.40131789	      0.93147947	      0.34052101	      9.21510093	     -4.22003770	      1.77735106	      0.22715914	    -13.01526007	      3.97121561	      0.00000000	      0.00000000	     10.42438822	     -6.40969939	      1.79750055	      0.22571927	    -12.93276174	      4.54222921	      0.00000000	      0.00000000	     -8.59644561	      0.24633105	      0.00337930	    -15.96445915	      0.32762030	      0.00359050	    -14.12310050	      0.59892932	      0.00359050	     -9.82487769	      0.59892932	      0.00295689	     -7.98265940	      0.50231828	      0.00274568	     -4.91200902	      0.38156680	      0.00253447	    -61.40355136	      2.78654612	      0.01879464	      0.00000000	      0.00000000	     24.93885796	    -24.53874045	     10.84325108	     88.72199052	     73.90290066	    -26.13469151	     48.19295870	     28.65421584	    -23.91398737	     16.45544129	     85.52391599	     70.71810901	    -26.47442749	     45.77990531
      9.06000000	      1.09814770	      3.27262100	     92.56031313	      0.40141252	      0.93079145	      0.34302601	      9.74985888	     -4.20541116	      1.82691268	      0.22869388	    -13.10319433	      3.80208865	      0.00000000	      0.00000000	     10.96658730	     -6.41759315	      1.87403537	      0.22799289	    -13.06303034	      4.38706941	      0.00000000	      0.00000000	     -8.68581277	      0.24903264	      0.01582959	    -16.13042289	      0.33121341	      0.01681894	    -14.26992179	      0.60549796	      0.01681894	     -9.92701541	      0.60549796	      0.01385089	     -8.06564573	      0.50782735	      0.01286154	     -4.96307341	      0.38575156	      0.01187219	    -62.04189201	      2.81710700	      0.08803944	      0.00000000	      0.00000000	     26.07494720	    -24.56999623	     11.39511346	     87.89080087	     73.53837908	    -26.23610712	     47.49384547	     29.80841236	    -23.88941845	     16.98053576	     84.47702882	     70.11289827	    -26.32660487	     44.85615869
      9.07000000	      1.11145297	      2.97795928	     92.53908824	      0.40147151	      0.93005296	      0.34552832	     10.30368080	     -4.20497664	      1.88708150	      0.23042544	    -13.20240510	      3.64081822	      0.00000000	      0.00000000	     11.52249305	     -6.40971333	      1.92628190	      0.23009923	    -13.18371499	      4.22755849	      0.00000000	      0.00000000	     -8.77072048	      0.25057647	      0.02284175	    -16.28810501	      0.33326671	      0.02426936	    -14.40941668	      0.60925163	      0.02426936	    -10.02405644	      0.60925163	      0.01998653	     -8.14449104	      0.51097554	      0.01855893	     -5.01158968	      0.38814296	      0.01713132	    -62.64837935	      2.83457117	      0.12703898	      0.00000000	      0.00000000	     27.30169386	    -24.58387090	     12.01706377	     86.96983448	     73.13851608	    -26.33720137	     46.77158368	     31.01943043	    -23.86408219	     17.53011755	     83.34682655	     69.45949981	    -26.15353791	     43.89899314
      9.08000000	      1.10220365	      2.65468814	     92.51013489	      0.40147776	      0.92925705	      0.34804915	     10.89671021	     -4.23151436	      2.00220503	      0.23246290	    -13.31914280	      3.49584275	      0.00000000	      0.00000000	     12.10727633	     -6.37016526	      2.00110820	      0.23234408	    -13.31233499	      4.07012981	      0.00000000	      0.00000000	     -8.85303980	      0.25062211	      0.02702558	    -16.44098022	      0.33332741	      0.02871468	    -14.54465910	      0.60936260	      0.02871468	    -10.11813919	      0.60936260	      0.02364738	     -8.22093276	      0.51106861	      0.02195828	     -5.05862694	      0.38821365	      0.02026918	    -63.23637802	      2.83508745	      0.15030816	      0.00000000	      0.00000000	     28.61387665	    -24.70467673	     12.86312599	     86.05739395	     72.55405062	    -26.61823858	     45.89016936	     32.24173755	    -23.76880426	     17.96528886	     82.14462966	     68.88921625	    -25.83382785	     42.89053080
